<?xml version="1.0" encoding="UTF-8" standalone="no"?>
<!-- Created with Inkscape (http://www.inkscape.org/) -->

<svg
   xmlns:dc="http://purl.org/dc/elements/1.1/"
   xmlns:cc="http://creativecommons.org/ns#"
   xmlns:rdf="http://www.w3.org/1999/02/22-rdf-syntax-ns#"
   xmlns:svg="http://www.w3.org/2000/svg"
   xmlns="http://www.w3.org/2000/svg"
   xmlns:sodipodi="http://sodipodi.sourceforge.net/DTD/sodipodi-0.dtd"
   xmlns:inkscape="http://www.inkscape.org/namespaces/inkscape"
   width="700mm"
   height="700mm"
   viewBox="0 0 700 700"
   version="1.1"
   id="svg997"
   inkscape:export-filename="C:\Users\suitedoalex\eliane-logo-0.png"
   inkscape:export-xdpi="148.6263"
   inkscape:export-ydpi="148.6263"
   inkscape:version="0.92.4 (5da689c313, 2019-01-14)"
   sodipodi:docname="eliane-logo.svg">
  <defs
     id="defs991" />
  <sodipodi:namedview
     id="base"
     pagecolor="#ffffff"
     bordercolor="#666666"
     borderopacity="1.0"
     inkscape:pageopacity="0.0"
     inkscape:pageshadow="2"
     inkscape:zoom="0.12374369"
     inkscape:cx="1280.8257"
     inkscape:cy="1777.406"
     inkscape:document-units="mm"
     inkscape:current-layer="layer1"
     showgrid="false"
     inkscape:window-width="1600"
     inkscape:window-height="837"
     inkscape:window-x="-8"
     inkscape:window-y="-8"
     inkscape:window-maximized="1" />
  <metadata
     id="metadata994">
    <rdf:RDF>
      <cc:Work
         rdf:about="">
        <dc:format>image/svg+xml</dc:format>
        <dc:type
           rdf:resource="http://purl.org/dc/dcmitype/StillImage" />
        <dc:title></dc:title>
      </cc:Work>
    </rdf:RDF>
  </metadata>
  <g
     inkscape:label="Layer 1"
     inkscape:groupmode="layer"
     id="layer1"
     transform="translate(0,403)">
    <g
       id="g132"
       transform="matrix(4.5051889,0,0,-4.5051889,349.92116,5.0718849)"
       inkscape:export-xdpi="20.293331"
       inkscape:export-ydpi="20.293331">
      <path
         d="M 0,0 C -18.894,0 -38.288,-0.658 -55.547,-1.593 V -1.989 H 0 55.538 v 0.396 C 38.28,-0.658 18.885,0 0,0 m -32.527,12.881 c 0,-0.467 -0.042,-0.935 -0.112,-1.384 h -15.953 c 0.148,-2.777 1.956,-4.36 4.551,-4.36 2.059,0 3.616,0.987 4.247,2.777 h 6.74 c -1.342,-3.694 -4.136,-6.35 -10.987,-6.35 -6.844,0 -11.506,4.17 -11.506,9.317 0,5.156 3.884,9.325 11.506,9.325 7.629,0 11.514,-4.169 11.514,-9.325 m -7.145,2.189 c -0.45,2.309 -2.103,3.572 -4.369,3.572 -2.267,0 -3.918,-1.263 -4.36,-3.572 z m 8.719,12.699 h 6.748 V 3.961 h -6.748 z M 16.256,15.459 V 3.962 H 9.507 v 17.847 c 4.628,-0.468 8.443,0.424 12.933,0.397 3.997,-0.008 8.496,-1.401 8.496,-6.271 V 3.962 h -6.749 v 11.497 c 0,1.514 -1.366,3.183 -3.962,3.183 -2.603,0 -3.969,-1.669 -3.969,-3.183 m -38.472,0.19 V 3.962 h 6.748 V 21.41 c -2.587,-1.306 -4.87,-3.148 -6.748,-5.761 m 0,6.557 v -4.368 c 2.051,1.817 4.3,3.123 6.748,3.971 v 0.397 z M 0.787,11.895 V 10.364 C 0.787,9.266 0.718,8.226 -0.424,7.63 -1.167,7.249 -2.163,7.137 -2.985,7.137 c -1.358,0 -3.77,0.276 -3.77,2.379 0,2.024 1.798,2.379 3.476,2.379 z m -3.529,10.311 c -5.615,0 -9.283,-2.387 -10.113,-5.545 h 6.523 c 0.302,1.713 2.353,1.981 3.927,1.981 1.566,0 3.176,-0.432 3.176,-1.791 0,-1.989 -2.726,-1.781 -4.135,-1.781 -3.972,0 -10.494,0.035 -10.538,-5.381 -0.009,-1.99 1.307,-4.057 3.01,-4.957 2.431,-1.289 5.269,-1.159 5.718,-1.159 4.352,-0.027 8.202,0.683 12.7,0.389 V 15.45 c 0,5.095 -6.176,6.756 -10.268,6.756 m 58.324,-9.325 c 0,-0.467 -0.036,-0.935 -0.113,-1.384 H 39.526 c 0.155,-2.777 1.946,-4.36 4.55,-4.36 2.059,0 3.616,0.987 4.247,2.777 h 6.739 C 53.713,6.22 50.936,3.564 44.076,3.564 c -6.86,0 -11.497,4.17 -11.497,9.317 0,5.156 3.868,9.325 11.497,9.325 7.63,0 11.506,-4.169 11.506,-9.325 m -7.138,2.189 c -0.449,2.309 -2.102,3.572 -4.368,3.572 -2.267,0 -3.919,-1.263 -4.37,-3.572 z"
         style="fill:#c21718;fill-opacity:1;fill-rule:nonzero;stroke:none"
         id="path134"
         inkscape:connector-curvature="0" />
    </g>
  </g>
</svg>
